<mxfile host="Electron" modified="2023-12-16T20:48:50.446Z" agent="Mozilla/5.0 (X11; Linux x86_64) AppleWebKit/537.36 (KHTML, like Gecko) draw.io/21.1.2 Chrome/106.0.5249.199 Electron/21.4.3 Safari/537.36" etag="Of-8XHbuMfUPsX8LLOug" version="21.1.2" type="device">
  <diagram name="Page-1" id="xoZgh3bWYaj_-_FVmXG8">
    <mxGraphModel dx="1471" dy="920" grid="1" gridSize="10" guides="1" tooltips="1" connect="1" arrows="1" fold="1" page="1" pageScale="1" pageWidth="827" pageHeight="1169" math="0" shadow="0">
      <root>
        <mxCell id="0" />
        <mxCell id="1" parent="0" />
        <mxCell id="OYL-9lKptnVRqOqJhW1v-1" value="Employee" style="whiteSpace=wrap;html=1;align=center;" vertex="1" parent="1">
          <mxGeometry x="130" y="170" width="100" height="40" as="geometry" />
        </mxCell>
        <mxCell id="OYL-9lKptnVRqOqJhW1v-2" value="&lt;u&gt;emp_no&lt;/u&gt;" style="ellipse;whiteSpace=wrap;html=1;align=center;" vertex="1" parent="1">
          <mxGeometry x="320" y="120" width="80" height="30" as="geometry" />
        </mxCell>
        <mxCell id="OYL-9lKptnVRqOqJhW1v-3" value="&lt;u&gt;emp_title&lt;/u&gt;" style="ellipse;whiteSpace=wrap;html=1;align=center;" vertex="1" parent="1">
          <mxGeometry x="20" y="90" width="80" height="30" as="geometry" />
        </mxCell>
        <mxCell id="OYL-9lKptnVRqOqJhW1v-4" value="birth_date" style="ellipse;whiteSpace=wrap;html=1;align=center;" vertex="1" parent="1">
          <mxGeometry x="220" y="80" width="70" height="30" as="geometry" />
        </mxCell>
        <mxCell id="OYL-9lKptnVRqOqJhW1v-5" value="first_name" style="ellipse;whiteSpace=wrap;html=1;align=center;" vertex="1" parent="1">
          <mxGeometry x="305" y="70" width="70" height="30" as="geometry" />
        </mxCell>
        <mxCell id="OYL-9lKptnVRqOqJhW1v-6" value="last_name" style="ellipse;whiteSpace=wrap;html=1;align=center;" vertex="1" parent="1">
          <mxGeometry x="160" y="30" width="80" height="40" as="geometry" />
        </mxCell>
        <mxCell id="OYL-9lKptnVRqOqJhW1v-7" value="sex" style="ellipse;whiteSpace=wrap;html=1;align=center;" vertex="1" parent="1">
          <mxGeometry x="110" y="70" width="70" height="30" as="geometry" />
        </mxCell>
        <mxCell id="OYL-9lKptnVRqOqJhW1v-8" value="hire_date" style="ellipse;whiteSpace=wrap;html=1;align=center;" vertex="1" parent="1">
          <mxGeometry x="40" y="140" width="70" height="30" as="geometry" />
        </mxCell>
        <mxCell id="OYL-9lKptnVRqOqJhW1v-9" value="" style="endArrow=none;html=1;rounded=0;exitX=0.5;exitY=1;exitDx=0;exitDy=0;entryX=1;entryY=0.25;entryDx=0;entryDy=0;" edge="1" parent="1" source="OYL-9lKptnVRqOqJhW1v-5" target="OYL-9lKptnVRqOqJhW1v-1">
          <mxGeometry relative="1" as="geometry">
            <mxPoint x="210" y="310" as="sourcePoint" />
            <mxPoint x="370" y="310" as="targetPoint" />
          </mxGeometry>
        </mxCell>
        <mxCell id="OYL-9lKptnVRqOqJhW1v-10" value="" style="endArrow=none;html=1;rounded=0;entryX=1;entryY=1;entryDx=0;entryDy=0;exitX=0;exitY=0.25;exitDx=0;exitDy=0;" edge="1" parent="1" source="OYL-9lKptnVRqOqJhW1v-1" target="OYL-9lKptnVRqOqJhW1v-8">
          <mxGeometry relative="1" as="geometry">
            <mxPoint x="320" y="170" as="sourcePoint" />
            <mxPoint x="250" y="200" as="targetPoint" />
          </mxGeometry>
        </mxCell>
        <mxCell id="OYL-9lKptnVRqOqJhW1v-11" value="" style="endArrow=none;html=1;rounded=0;entryX=1;entryY=1;entryDx=0;entryDy=0;exitX=0.25;exitY=0;exitDx=0;exitDy=0;" edge="1" parent="1" source="OYL-9lKptnVRqOqJhW1v-1" target="OYL-9lKptnVRqOqJhW1v-3">
          <mxGeometry relative="1" as="geometry">
            <mxPoint x="164" y="190" as="sourcePoint" />
            <mxPoint x="120" y="165" as="targetPoint" />
          </mxGeometry>
        </mxCell>
        <mxCell id="OYL-9lKptnVRqOqJhW1v-12" value="" style="endArrow=none;html=1;rounded=0;entryX=0.5;entryY=1;entryDx=0;entryDy=0;exitX=0.5;exitY=0;exitDx=0;exitDy=0;" edge="1" parent="1" source="OYL-9lKptnVRqOqJhW1v-1" target="OYL-9lKptnVRqOqJhW1v-7">
          <mxGeometry relative="1" as="geometry">
            <mxPoint x="175" y="190" as="sourcePoint" />
            <mxPoint x="110" y="115" as="targetPoint" />
          </mxGeometry>
        </mxCell>
        <mxCell id="OYL-9lKptnVRqOqJhW1v-13" value="" style="endArrow=none;html=1;rounded=0;entryX=0.5;entryY=1;entryDx=0;entryDy=0;exitX=0.75;exitY=0;exitDx=0;exitDy=0;" edge="1" parent="1" source="OYL-9lKptnVRqOqJhW1v-1" target="OYL-9lKptnVRqOqJhW1v-6">
          <mxGeometry relative="1" as="geometry">
            <mxPoint x="200" y="190" as="sourcePoint" />
            <mxPoint x="155" y="110" as="targetPoint" />
          </mxGeometry>
        </mxCell>
        <mxCell id="OYL-9lKptnVRqOqJhW1v-14" value="" style="endArrow=none;html=1;rounded=0;entryX=0.5;entryY=1;entryDx=0;entryDy=0;exitX=1;exitY=0;exitDx=0;exitDy=0;" edge="1" parent="1" source="OYL-9lKptnVRqOqJhW1v-1" target="OYL-9lKptnVRqOqJhW1v-4">
          <mxGeometry relative="1" as="geometry">
            <mxPoint x="230" y="190" as="sourcePoint" />
            <mxPoint x="232" y="94" as="targetPoint" />
          </mxGeometry>
        </mxCell>
        <mxCell id="OYL-9lKptnVRqOqJhW1v-15" value="" style="endArrow=none;html=1;rounded=0;entryX=0;entryY=1;entryDx=0;entryDy=0;exitX=1;exitY=0.75;exitDx=0;exitDy=0;" edge="1" parent="1" source="OYL-9lKptnVRqOqJhW1v-1" target="OYL-9lKptnVRqOqJhW1v-2">
          <mxGeometry relative="1" as="geometry">
            <mxPoint x="250" y="190" as="sourcePoint" />
            <mxPoint x="310" y="115" as="targetPoint" />
          </mxGeometry>
        </mxCell>
        <mxCell id="OYL-9lKptnVRqOqJhW1v-16" value="titles" style="whiteSpace=wrap;html=1;align=center;" vertex="1" parent="1">
          <mxGeometry x="560" y="180" width="100" height="40" as="geometry" />
        </mxCell>
        <mxCell id="OYL-9lKptnVRqOqJhW1v-17" value="&lt;u&gt;title_id&lt;/u&gt;" style="ellipse;whiteSpace=wrap;html=1;align=center;" vertex="1" parent="1">
          <mxGeometry x="530" y="80" width="70" height="30" as="geometry" />
        </mxCell>
        <mxCell id="OYL-9lKptnVRqOqJhW1v-18" value="" style="endArrow=none;html=1;rounded=0;exitX=0.5;exitY=1;exitDx=0;exitDy=0;entryX=0.25;entryY=0;entryDx=0;entryDy=0;" edge="1" parent="1" source="OYL-9lKptnVRqOqJhW1v-17" target="OYL-9lKptnVRqOqJhW1v-16">
          <mxGeometry relative="1" as="geometry">
            <mxPoint x="680" y="340" as="sourcePoint" />
            <mxPoint x="700" y="210" as="targetPoint" />
          </mxGeometry>
        </mxCell>
        <mxCell id="OYL-9lKptnVRqOqJhW1v-19" value="title" style="ellipse;whiteSpace=wrap;html=1;align=center;" vertex="1" parent="1">
          <mxGeometry x="610" y="90" width="70" height="30" as="geometry" />
        </mxCell>
        <mxCell id="OYL-9lKptnVRqOqJhW1v-20" value="" style="endArrow=none;html=1;rounded=0;exitX=0.5;exitY=1;exitDx=0;exitDy=0;entryX=0.75;entryY=0;entryDx=0;entryDy=0;" edge="1" parent="1" source="OYL-9lKptnVRqOqJhW1v-19" target="OYL-9lKptnVRqOqJhW1v-16">
          <mxGeometry relative="1" as="geometry">
            <mxPoint x="740" y="400" as="sourcePoint" />
            <mxPoint x="760" y="270" as="targetPoint" />
          </mxGeometry>
        </mxCell>
        <mxCell id="OYL-9lKptnVRqOqJhW1v-23" value="has" style="shape=rhombus;perimeter=rhombusPerimeter;whiteSpace=wrap;html=1;align=center;" vertex="1" parent="1">
          <mxGeometry x="354" y="180" width="120" height="60" as="geometry" />
        </mxCell>
        <mxCell id="OYL-9lKptnVRqOqJhW1v-24" value="" style="endArrow=none;html=1;rounded=0;entryX=0;entryY=0.5;entryDx=0;entryDy=0;" edge="1" parent="1" target="OYL-9lKptnVRqOqJhW1v-23">
          <mxGeometry relative="1" as="geometry">
            <mxPoint x="230" y="200" as="sourcePoint" />
            <mxPoint x="360" y="260" as="targetPoint" />
          </mxGeometry>
        </mxCell>
        <mxCell id="OYL-9lKptnVRqOqJhW1v-26" value="&lt;b&gt;&lt;font style=&quot;font-size: 12px;&quot;&gt;*&lt;/font&gt;&lt;/b&gt;" style="edgeLabel;html=1;align=center;verticalAlign=middle;resizable=0;points=[];" vertex="1" connectable="0" parent="OYL-9lKptnVRqOqJhW1v-24">
          <mxGeometry x="0.1613" y="-2" relative="1" as="geometry">
            <mxPoint x="28" y="-8" as="offset" />
          </mxGeometry>
        </mxCell>
        <mxCell id="OYL-9lKptnVRqOqJhW1v-25" value="1" style="endArrow=none;html=1;rounded=0;exitX=1;exitY=0.5;exitDx=0;exitDy=0;entryX=0;entryY=0.5;entryDx=0;entryDy=0;" edge="1" parent="1" source="OYL-9lKptnVRqOqJhW1v-23" target="OYL-9lKptnVRqOqJhW1v-16">
          <mxGeometry x="-0.8356" y="9" relative="1" as="geometry">
            <mxPoint x="240" y="220" as="sourcePoint" />
            <mxPoint x="364" y="220" as="targetPoint" />
            <mxPoint as="offset" />
          </mxGeometry>
        </mxCell>
        <mxCell id="OYL-9lKptnVRqOqJhW1v-29" value="Salaries" style="whiteSpace=wrap;html=1;align=center;" vertex="1" parent="1">
          <mxGeometry x="90" y="360" width="100" height="40" as="geometry" />
        </mxCell>
        <mxCell id="OYL-9lKptnVRqOqJhW1v-30" value="&lt;u&gt;emp_no&lt;/u&gt;" style="ellipse;whiteSpace=wrap;html=1;align=center;" vertex="1" parent="1">
          <mxGeometry x="20" y="300" width="80" height="30" as="geometry" />
        </mxCell>
        <mxCell id="OYL-9lKptnVRqOqJhW1v-31" value="salary" style="ellipse;whiteSpace=wrap;html=1;align=center;" vertex="1" parent="1">
          <mxGeometry x="25" y="430" width="70" height="30" as="geometry" />
        </mxCell>
        <mxCell id="OYL-9lKptnVRqOqJhW1v-32" value="" style="endArrow=none;html=1;rounded=0;entryX=0;entryY=0.75;entryDx=0;entryDy=0;exitX=0.5;exitY=0;exitDx=0;exitDy=0;" edge="1" parent="1" source="OYL-9lKptnVRqOqJhW1v-31" target="OYL-9lKptnVRqOqJhW1v-29">
          <mxGeometry relative="1" as="geometry">
            <mxPoint x="315" y="320" as="sourcePoint" />
            <mxPoint x="205" y="400" as="targetPoint" />
          </mxGeometry>
        </mxCell>
        <mxCell id="OYL-9lKptnVRqOqJhW1v-33" value="" style="endArrow=none;html=1;rounded=0;entryX=0.5;entryY=1;entryDx=0;entryDy=0;exitX=0;exitY=0;exitDx=0;exitDy=0;" edge="1" parent="1" target="OYL-9lKptnVRqOqJhW1v-30" source="OYL-9lKptnVRqOqJhW1v-29">
          <mxGeometry relative="1" as="geometry">
            <mxPoint x="205" y="420" as="sourcePoint" />
            <mxPoint x="285" y="335" as="targetPoint" />
          </mxGeometry>
        </mxCell>
        <mxCell id="OYL-9lKptnVRqOqJhW1v-34" value="has" style="shape=rhombus;perimeter=rhombusPerimeter;whiteSpace=wrap;html=1;align=center;direction=south;" vertex="1" parent="1">
          <mxGeometry x="110" y="240" width="60" height="80" as="geometry" />
        </mxCell>
        <mxCell id="OYL-9lKptnVRqOqJhW1v-35" value="" style="endArrow=none;html=1;rounded=0;entryX=0;entryY=0.5;entryDx=0;entryDy=0;exitX=0.5;exitY=1;exitDx=0;exitDy=0;" edge="1" parent="1" target="OYL-9lKptnVRqOqJhW1v-34" source="OYL-9lKptnVRqOqJhW1v-1">
          <mxGeometry relative="1" as="geometry">
            <mxPoint x="290" y="330" as="sourcePoint" />
            <mxPoint x="420" y="390" as="targetPoint" />
          </mxGeometry>
        </mxCell>
        <mxCell id="OYL-9lKptnVRqOqJhW1v-36" value="&lt;b&gt;&lt;font style=&quot;font-size: 12px;&quot;&gt;*&lt;/font&gt;&lt;/b&gt;" style="edgeLabel;html=1;align=center;verticalAlign=middle;resizable=0;points=[];" vertex="1" connectable="0" parent="OYL-9lKptnVRqOqJhW1v-35">
          <mxGeometry x="0.1613" y="-2" relative="1" as="geometry">
            <mxPoint x="12" y="-3" as="offset" />
          </mxGeometry>
        </mxCell>
        <mxCell id="OYL-9lKptnVRqOqJhW1v-37" value="1" style="endArrow=none;html=1;rounded=0;exitX=1;exitY=0.5;exitDx=0;exitDy=0;entryX=0.5;entryY=0;entryDx=0;entryDy=0;" edge="1" parent="1" source="OYL-9lKptnVRqOqJhW1v-34" target="OYL-9lKptnVRqOqJhW1v-29">
          <mxGeometry x="-0.8356" y="9" relative="1" as="geometry">
            <mxPoint x="260" y="340" as="sourcePoint" />
            <mxPoint x="580" y="320" as="targetPoint" />
            <mxPoint as="offset" />
          </mxGeometry>
        </mxCell>
        <mxCell id="OYL-9lKptnVRqOqJhW1v-40" value="dept_emp" style="whiteSpace=wrap;html=1;align=center;" vertex="1" parent="1">
          <mxGeometry x="556" y="360" width="100" height="40" as="geometry" />
        </mxCell>
        <mxCell id="OYL-9lKptnVRqOqJhW1v-45" value="&lt;u&gt;dept_no&lt;/u&gt;" style="ellipse;whiteSpace=wrap;html=1;align=center;" vertex="1" parent="1">
          <mxGeometry x="450" y="380" width="80" height="30" as="geometry" />
        </mxCell>
        <mxCell id="OYL-9lKptnVRqOqJhW1v-46" value="" style="endArrow=none;html=1;rounded=0;entryX=1;entryY=0.5;entryDx=0;entryDy=0;exitX=0;exitY=0.5;exitDx=0;exitDy=0;" edge="1" parent="1" target="OYL-9lKptnVRqOqJhW1v-45" source="OYL-9lKptnVRqOqJhW1v-40">
          <mxGeometry relative="1" as="geometry">
            <mxPoint x="626" y="360" as="sourcePoint" />
            <mxPoint x="821" y="335" as="targetPoint" />
          </mxGeometry>
        </mxCell>
        <mxCell id="OYL-9lKptnVRqOqJhW1v-47" value="&lt;u&gt;emp_no&lt;/u&gt;" style="ellipse;whiteSpace=wrap;html=1;align=center;" vertex="1" parent="1">
          <mxGeometry x="660" y="310" width="80" height="30" as="geometry" />
        </mxCell>
        <mxCell id="OYL-9lKptnVRqOqJhW1v-48" value="" style="endArrow=none;html=1;rounded=0;entryX=0.5;entryY=1;entryDx=0;entryDy=0;exitX=1;exitY=0;exitDx=0;exitDy=0;" edge="1" parent="1" target="OYL-9lKptnVRqOqJhW1v-47" source="OYL-9lKptnVRqOqJhW1v-40">
          <mxGeometry relative="1" as="geometry">
            <mxPoint x="746" y="380" as="sourcePoint" />
            <mxPoint x="941" y="355" as="targetPoint" />
          </mxGeometry>
        </mxCell>
        <mxCell id="OYL-9lKptnVRqOqJhW1v-49" value="belongs to Dept&lt;br&gt;&amp;nbsp;through" style="shape=rhombus;perimeter=rhombusPerimeter;whiteSpace=wrap;html=1;align=center;" vertex="1" parent="1">
          <mxGeometry x="354" y="260" width="136" height="60" as="geometry" />
        </mxCell>
        <mxCell id="OYL-9lKptnVRqOqJhW1v-50" value="" style="endArrow=none;html=1;rounded=0;entryX=0;entryY=0.5;entryDx=0;entryDy=0;exitX=0.75;exitY=1;exitDx=0;exitDy=0;" edge="1" parent="1" source="OYL-9lKptnVRqOqJhW1v-1" target="OYL-9lKptnVRqOqJhW1v-49">
          <mxGeometry relative="1" as="geometry">
            <mxPoint x="240" y="210" as="sourcePoint" />
            <mxPoint x="364" y="220" as="targetPoint" />
          </mxGeometry>
        </mxCell>
        <mxCell id="OYL-9lKptnVRqOqJhW1v-51" value="&lt;b&gt;&lt;font style=&quot;font-size: 12px;&quot;&gt;1..N&lt;/font&gt;&lt;/b&gt;" style="edgeLabel;html=1;align=center;verticalAlign=middle;resizable=0;points=[];" vertex="1" connectable="0" parent="OYL-9lKptnVRqOqJhW1v-50">
          <mxGeometry x="0.1613" y="-2" relative="1" as="geometry">
            <mxPoint x="-12" y="-18" as="offset" />
          </mxGeometry>
        </mxCell>
        <mxCell id="OYL-9lKptnVRqOqJhW1v-52" value="" style="endArrow=none;html=1;rounded=0;entryX=0.5;entryY=0;entryDx=0;entryDy=0;exitX=1;exitY=0.5;exitDx=0;exitDy=0;" edge="1" parent="1" source="OYL-9lKptnVRqOqJhW1v-49" target="OYL-9lKptnVRqOqJhW1v-40">
          <mxGeometry relative="1" as="geometry">
            <mxPoint x="215" y="220" as="sourcePoint" />
            <mxPoint x="364" y="300" as="targetPoint" />
          </mxGeometry>
        </mxCell>
        <mxCell id="OYL-9lKptnVRqOqJhW1v-53" value="&lt;span style=&quot;font-size: 12px;&quot;&gt;&lt;b&gt;1&lt;/b&gt;&lt;/span&gt;" style="edgeLabel;html=1;align=center;verticalAlign=middle;resizable=0;points=[];" vertex="1" connectable="0" parent="OYL-9lKptnVRqOqJhW1v-52">
          <mxGeometry x="0.1613" y="-2" relative="1" as="geometry">
            <mxPoint x="-60" y="-43" as="offset" />
          </mxGeometry>
        </mxCell>
        <mxCell id="OYL-9lKptnVRqOqJhW1v-55" value="Department" style="whiteSpace=wrap;html=1;align=center;" vertex="1" parent="1">
          <mxGeometry x="460" y="564.5" width="100" height="40" as="geometry" />
        </mxCell>
        <mxCell id="OYL-9lKptnVRqOqJhW1v-56" value="&lt;u&gt;dept_no&lt;/u&gt;" style="ellipse;whiteSpace=wrap;html=1;align=center;" vertex="1" parent="1">
          <mxGeometry x="575" y="545" width="70" height="30" as="geometry" />
        </mxCell>
        <mxCell id="OYL-9lKptnVRqOqJhW1v-57" value="" style="endArrow=none;html=1;rounded=0;exitX=0;exitY=0.5;exitDx=0;exitDy=0;entryX=1;entryY=0.5;entryDx=0;entryDy=0;" edge="1" parent="1" source="OYL-9lKptnVRqOqJhW1v-56" target="OYL-9lKptnVRqOqJhW1v-55">
          <mxGeometry relative="1" as="geometry">
            <mxPoint x="750" y="785" as="sourcePoint" />
            <mxPoint x="655" y="625" as="targetPoint" />
          </mxGeometry>
        </mxCell>
        <mxCell id="OYL-9lKptnVRqOqJhW1v-58" value="dept_name" style="ellipse;whiteSpace=wrap;html=1;align=center;" vertex="1" parent="1">
          <mxGeometry x="344" y="540" width="70" height="30" as="geometry" />
        </mxCell>
        <mxCell id="OYL-9lKptnVRqOqJhW1v-59" value="" style="endArrow=none;html=1;rounded=0;exitX=1;exitY=0.5;exitDx=0;exitDy=0;entryX=0;entryY=0.5;entryDx=0;entryDy=0;" edge="1" parent="1" source="OYL-9lKptnVRqOqJhW1v-58" target="OYL-9lKptnVRqOqJhW1v-55">
          <mxGeometry relative="1" as="geometry">
            <mxPoint x="440" y="855" as="sourcePoint" />
            <mxPoint x="410" y="575" as="targetPoint" />
          </mxGeometry>
        </mxCell>
        <mxCell id="OYL-9lKptnVRqOqJhW1v-60" value="has employee&amp;nbsp;&lt;br&gt;through" style="shape=rhombus;perimeter=rhombusPerimeter;whiteSpace=wrap;html=1;align=center;" vertex="1" parent="1">
          <mxGeometry x="510" y="450" width="150" height="60" as="geometry" />
        </mxCell>
        <mxCell id="OYL-9lKptnVRqOqJhW1v-61" value="" style="endArrow=none;html=1;rounded=0;entryX=0;entryY=0.5;entryDx=0;entryDy=0;exitX=0.5;exitY=0;exitDx=0;exitDy=0;" edge="1" parent="1" target="OYL-9lKptnVRqOqJhW1v-60" source="OYL-9lKptnVRqOqJhW1v-55">
          <mxGeometry relative="1" as="geometry">
            <mxPoint x="546" y="540" as="sourcePoint" />
            <mxPoint x="540" y="395" as="targetPoint" />
          </mxGeometry>
        </mxCell>
        <mxCell id="OYL-9lKptnVRqOqJhW1v-62" value="&lt;b&gt;&lt;font style=&quot;font-size: 12px;&quot;&gt;1..N&lt;/font&gt;&lt;/b&gt;" style="edgeLabel;html=1;align=center;verticalAlign=middle;resizable=0;points=[];" vertex="1" connectable="0" parent="OYL-9lKptnVRqOqJhW1v-61">
          <mxGeometry x="0.1613" y="-2" relative="1" as="geometry">
            <mxPoint x="24" y="4" as="offset" />
          </mxGeometry>
        </mxCell>
        <mxCell id="OYL-9lKptnVRqOqJhW1v-63" value="" style="endArrow=none;html=1;rounded=0;entryX=0.5;entryY=1;entryDx=0;entryDy=0;" edge="1" parent="1" source="OYL-9lKptnVRqOqJhW1v-60" target="OYL-9lKptnVRqOqJhW1v-40">
          <mxGeometry relative="1" as="geometry">
            <mxPoint x="391" y="395" as="sourcePoint" />
            <mxPoint x="782" y="535" as="targetPoint" />
          </mxGeometry>
        </mxCell>
        <mxCell id="OYL-9lKptnVRqOqJhW1v-64" value="&lt;span style=&quot;font-size: 12px;&quot;&gt;&lt;b&gt;1&lt;/b&gt;&lt;/span&gt;" style="edgeLabel;html=1;align=center;verticalAlign=middle;resizable=0;points=[];" vertex="1" connectable="0" parent="OYL-9lKptnVRqOqJhW1v-63">
          <mxGeometry x="0.1613" y="-2" relative="1" as="geometry">
            <mxPoint x="11" y="24" as="offset" />
          </mxGeometry>
        </mxCell>
        <mxCell id="OYL-9lKptnVRqOqJhW1v-74" value="dept_manager" style="whiteSpace=wrap;html=1;align=center;" vertex="1" parent="1">
          <mxGeometry x="325" y="760" width="100" height="40" as="geometry" />
        </mxCell>
        <mxCell id="OYL-9lKptnVRqOqJhW1v-75" value="&lt;u&gt;dept_no&lt;/u&gt;" style="ellipse;whiteSpace=wrap;html=1;align=center;" vertex="1" parent="1">
          <mxGeometry x="206" y="770" width="80" height="30" as="geometry" />
        </mxCell>
        <mxCell id="OYL-9lKptnVRqOqJhW1v-76" value="" style="endArrow=none;html=1;rounded=0;entryX=1;entryY=0.5;entryDx=0;entryDy=0;exitX=0;exitY=0.5;exitDx=0;exitDy=0;" edge="1" parent="1" source="OYL-9lKptnVRqOqJhW1v-74" target="OYL-9lKptnVRqOqJhW1v-75">
          <mxGeometry relative="1" as="geometry">
            <mxPoint x="416" y="769.88" as="sourcePoint" />
            <mxPoint x="611" y="744.88" as="targetPoint" />
          </mxGeometry>
        </mxCell>
        <mxCell id="OYL-9lKptnVRqOqJhW1v-77" value="&lt;u&gt;emp_no&lt;/u&gt;" style="ellipse;whiteSpace=wrap;html=1;align=center;" vertex="1" parent="1">
          <mxGeometry x="476" y="740" width="80" height="30" as="geometry" />
        </mxCell>
        <mxCell id="OYL-9lKptnVRqOqJhW1v-78" value="" style="endArrow=none;html=1;rounded=0;entryX=0;entryY=0.5;entryDx=0;entryDy=0;exitX=1;exitY=0.5;exitDx=0;exitDy=0;" edge="1" parent="1" source="OYL-9lKptnVRqOqJhW1v-74" target="OYL-9lKptnVRqOqJhW1v-77">
          <mxGeometry relative="1" as="geometry">
            <mxPoint x="536" y="789.88" as="sourcePoint" />
            <mxPoint x="731" y="764.88" as="targetPoint" />
          </mxGeometry>
        </mxCell>
        <mxCell id="OYL-9lKptnVRqOqJhW1v-79" value="belongs to Dept&lt;br&gt;&amp;nbsp;through" style="shape=rhombus;perimeter=rhombusPerimeter;whiteSpace=wrap;html=1;align=center;direction=south;" vertex="1" parent="1">
          <mxGeometry x="180" y="530" width="128" height="136" as="geometry" />
        </mxCell>
        <mxCell id="OYL-9lKptnVRqOqJhW1v-80" value="&lt;b&gt;&lt;font style=&quot;font-size: 12px;&quot;&gt;1..N&lt;/font&gt;&lt;/b&gt;" style="edgeLabel;html=1;align=center;verticalAlign=middle;resizable=0;points=[];" vertex="1" connectable="0" parent="1">
          <mxGeometry x="219.9958433074697" y="510.00016153137983" as="geometry">
            <mxPoint x="43" y="-5" as="offset" />
          </mxGeometry>
        </mxCell>
        <mxCell id="OYL-9lKptnVRqOqJhW1v-81" value="" style="endArrow=none;html=1;rounded=0;entryX=0.25;entryY=0;entryDx=0;entryDy=0;exitX=1;exitY=0.5;exitDx=0;exitDy=0;" edge="1" parent="1" source="OYL-9lKptnVRqOqJhW1v-79" target="OYL-9lKptnVRqOqJhW1v-74">
          <mxGeometry relative="1" as="geometry">
            <mxPoint x="5" y="629.88" as="sourcePoint" />
            <mxPoint x="154" y="709.88" as="targetPoint" />
          </mxGeometry>
        </mxCell>
        <mxCell id="OYL-9lKptnVRqOqJhW1v-82" value="&lt;span style=&quot;font-size: 12px;&quot;&gt;&lt;b&gt;1&lt;/b&gt;&lt;/span&gt;" style="edgeLabel;html=1;align=center;verticalAlign=middle;resizable=0;points=[];" vertex="1" connectable="0" parent="OYL-9lKptnVRqOqJhW1v-81">
          <mxGeometry x="0.1613" y="-2" relative="1" as="geometry">
            <mxPoint x="-38" y="-32" as="offset" />
          </mxGeometry>
        </mxCell>
        <mxCell id="OYL-9lKptnVRqOqJhW1v-83" value="Department" style="whiteSpace=wrap;html=1;align=center;" vertex="1" parent="1">
          <mxGeometry x="230" y="949.88" width="100" height="40" as="geometry" />
        </mxCell>
        <mxCell id="OYL-9lKptnVRqOqJhW1v-84" value="&lt;u&gt;dept_no&lt;/u&gt;" style="ellipse;whiteSpace=wrap;html=1;align=center;" vertex="1" parent="1">
          <mxGeometry x="365" y="954.88" width="70" height="30" as="geometry" />
        </mxCell>
        <mxCell id="OYL-9lKptnVRqOqJhW1v-85" value="" style="endArrow=none;html=1;rounded=0;exitX=0;exitY=0.5;exitDx=0;exitDy=0;entryX=1;entryY=0.5;entryDx=0;entryDy=0;" edge="1" parent="1" source="OYL-9lKptnVRqOqJhW1v-84" target="OYL-9lKptnVRqOqJhW1v-83">
          <mxGeometry relative="1" as="geometry">
            <mxPoint x="540" y="1194.88" as="sourcePoint" />
            <mxPoint x="445" y="1034.88" as="targetPoint" />
          </mxGeometry>
        </mxCell>
        <mxCell id="OYL-9lKptnVRqOqJhW1v-86" value="dept_name" style="ellipse;whiteSpace=wrap;html=1;align=center;" vertex="1" parent="1">
          <mxGeometry x="134" y="949.88" width="70" height="30" as="geometry" />
        </mxCell>
        <mxCell id="OYL-9lKptnVRqOqJhW1v-87" value="" style="endArrow=none;html=1;rounded=0;exitX=1;exitY=0.5;exitDx=0;exitDy=0;entryX=0;entryY=0.5;entryDx=0;entryDy=0;" edge="1" parent="1" source="OYL-9lKptnVRqOqJhW1v-86" target="OYL-9lKptnVRqOqJhW1v-83">
          <mxGeometry relative="1" as="geometry">
            <mxPoint x="230" y="1264.88" as="sourcePoint" />
            <mxPoint x="200" y="984.88" as="targetPoint" />
          </mxGeometry>
        </mxCell>
        <mxCell id="OYL-9lKptnVRqOqJhW1v-88" value="has employee&amp;nbsp;&lt;br&gt;through" style="shape=rhombus;perimeter=rhombusPerimeter;whiteSpace=wrap;html=1;align=center;" vertex="1" parent="1">
          <mxGeometry x="324" y="640" width="150" height="60" as="geometry" />
        </mxCell>
        <mxCell id="OYL-9lKptnVRqOqJhW1v-89" value="" style="endArrow=none;html=1;rounded=0;exitX=0;exitY=1;exitDx=0;exitDy=0;" edge="1" parent="1" source="OYL-9lKptnVRqOqJhW1v-55" target="OYL-9lKptnVRqOqJhW1v-88">
          <mxGeometry relative="1" as="geometry">
            <mxPoint x="336" y="949.88" as="sourcePoint" />
            <mxPoint x="330" y="804.88" as="targetPoint" />
          </mxGeometry>
        </mxCell>
        <mxCell id="OYL-9lKptnVRqOqJhW1v-90" value="&lt;b&gt;&lt;font style=&quot;font-size: 12px;&quot;&gt;1..N&lt;/font&gt;&lt;/b&gt;" style="edgeLabel;html=1;align=center;verticalAlign=middle;resizable=0;points=[];" vertex="1" connectable="0" parent="OYL-9lKptnVRqOqJhW1v-89">
          <mxGeometry x="0.1613" y="-2" relative="1" as="geometry">
            <mxPoint x="24" y="4" as="offset" />
          </mxGeometry>
        </mxCell>
        <mxCell id="OYL-9lKptnVRqOqJhW1v-91" value="" style="endArrow=none;html=1;rounded=0;entryX=0.5;entryY=0;entryDx=0;entryDy=0;" edge="1" parent="1" source="OYL-9lKptnVRqOqJhW1v-88" target="OYL-9lKptnVRqOqJhW1v-74">
          <mxGeometry relative="1" as="geometry">
            <mxPoint x="181" y="804.88" as="sourcePoint" />
            <mxPoint x="572" y="944.88" as="targetPoint" />
          </mxGeometry>
        </mxCell>
        <mxCell id="OYL-9lKptnVRqOqJhW1v-92" value="&lt;span style=&quot;font-size: 12px;&quot;&gt;&lt;b&gt;1&lt;/b&gt;&lt;/span&gt;" style="edgeLabel;html=1;align=center;verticalAlign=middle;resizable=0;points=[];" vertex="1" connectable="0" parent="OYL-9lKptnVRqOqJhW1v-91">
          <mxGeometry x="0.1613" y="-2" relative="1" as="geometry">
            <mxPoint x="11" y="24" as="offset" />
          </mxGeometry>
        </mxCell>
        <mxCell id="OYL-9lKptnVRqOqJhW1v-95" value="" style="endArrow=none;html=1;rounded=0;exitX=0;exitY=0.5;exitDx=0;exitDy=0;entryX=0.75;entryY=1;entryDx=0;entryDy=0;" edge="1" parent="1" source="OYL-9lKptnVRqOqJhW1v-79" target="OYL-9lKptnVRqOqJhW1v-1">
          <mxGeometry relative="1" as="geometry">
            <mxPoint x="216" y="500" as="sourcePoint" />
            <mxPoint x="160" y="700" as="targetPoint" />
          </mxGeometry>
        </mxCell>
      </root>
    </mxGraphModel>
  </diagram>
</mxfile>
